PathFileType	4	(X/Y/Z)	C:\Users\Basilio\Documents\Thesis Gigler\squatting_fais\c3dfiles\039\SLS_pre_back1\markers_experimental.trc
DataRate	CameraRate	NumFrames	NumMarkers	Units	OrigDataRate	OrigDataStartFrame	OrigNumFrames
200.000000	200.000000	4	63	mm	200.000000	221	1775
Frame#	Time	FHD			LBHD			RBHD			C7			T10			CLAV			LSHO			LUUPA			LMUPA			LDUPA			LLEP			LMEP			LRAD			LUL			LRFIN			RSHO			RUPA1			RMUPA			RDUPA			RLEP			RMEP			RRAD			RUL			RUFIN			LASI			RASI			USACR			LSACR			RSACR			LTHI1			LTHI2			LTHI3			LTHI4			LLFC			LMFC			LTIB1			LTIB2			LTIB3			LTIB4			LLMAL			LMMAL			LHEE			LMT1			LMT2			LMT5			RTHI			RTHI2			RTHI3			RTHI4			RLFC			RMFC			RTIB1			RTIB2			RTIB3			RTIB4			RLMAL			RMMAL			RHEE			RMT1			RMT2			RMT5			*61			*62			
		X1	Y1	Z1	X2	Y2	Z2	X3	Y3	Z3	X4	Y4	Z4	X5	Y5	Z5	X6	Y6	Z6	X7	Y7	Z7	X8	Y8	Z8	X9	Y9	Z9	X10	Y10	Z10	X11	Y11	Z11	X12	Y12	Z12	X13	Y13	Z13	X14	Y14	Z14	X15	Y15	Z15	X16	Y16	Z16	X17	Y17	Z17	X18	Y18	Z18	X19	Y19	Z19	X20	Y20	Z20	X21	Y21	Z21	X22	Y22	Z22	X23	Y23	Z23	X24	Y24	Z24	X25	Y25	Z25	X26	Y26	Z26	X27	Y27	Z27	X28	Y28	Z28	X29	Y29	Z29	X30	Y30	Z30	X31	Y31	Z31	X32	Y32	Z32	X33	Y33	Z33	X34	Y34	Z34	X35	Y35	Z35	X36	Y36	Z36	X37	Y37	Z37	X38	Y38	Z38	X39	Y39	Z39	X40	Y40	Z40	X41	Y41	Z41	X42	Y42	Z42	X43	Y43	Z43	X44	Y44	Z44	X45	Y45	Z45	X46	Y46	Z46	X47	Y47	Z47	X48	Y48	Z48	X49	Y49	Z49	X50	Y50	Z50	X51	Y51	Z51	X52	Y52	Z52	X53	Y53	Z53	X54	Y54	Z54	X55	Y55	Z55	X56	Y56	Z56	X57	Y57	Z57	X58	Y58	Z58	X59	Y59	Z59	X60	Y60	Z60	X61	Y61	Z61	X62	Y62	Z62	X63	Y63	Z63	

222	1.105	-305.0670471191407	1787.758666992188	-753.3745117187501	-456.4186096191407	1752.91259765625	-880.5930175781252	-435.3142700195314	1757.409545898438	-740.3272094726564	-483.0181274414064	1574.43994140625	-828.0271606445315	-447.3310546875001	1267.76171875	-846.1776123046877	nan	nan	nan	-402.422576904297	1599.862548828125	-979.3266601562502	-217.7222900390626	1579.358642578125	-1064.096801757813	-202.9485321044922	1614.194946289063	-1030.684814453125	-150.8437805175782	1595.872680664063	-1054.582763671875	-87.09164428710939	1612.409423828125	-1041.884155273438	-79.28512573242189	1543.048828125	-1005.152465820313	174.3004455566407	1674.048706054688	-922.7734985351565	180.9857177734375	1680.09521484375	-998.7905883789065	249.2432556152344	1720.569580078125	-909.7864379882815	-387.331024169922	1596.107421875	-668.8283691406251	-212.5098876953126	1551.007690429688	-577.6375732421876	-191.0743865966797	1586.998657226563	-605.9840698242189	-144.5080718994141	1554.29296875	-584.2686157226564	-84.9633026123047	1574.384887695313	-597.0148315429689	-75.13170623779298	1507.930786132813	-638.0289916992189	194.3935546875001	1647.406005859375	-686.1183471679689	197.2525329589844	1635.785034179688	-610.7979736328126	275.3997192382813	1692.683959960938	-678.7772216796876	-251.9120025634766	1105.756591796875	-963.9989013671877	-248.0326538085938	1092.588012695313	-737.4913940429689	-438.6788024902345	1142.163208007813	-845.948913574219	-437.7388305664064	1110.076171875	-874.8367919921877	-439.5090942382814	1108.887573242188	-815.912536621094	-319.4654846191407	821.5999145507815	-1044.158447265625	-284.5764160156251	745.0146484375001	-1051.05859375	-236.9029541015626	749.5625000000001	-1046.324340820313	-310.0902404785157	690.8078613281251	-1039.760498046875	-310.0410766601563	567.8348999023439	-1043.860107421875	-272.0833435058594	536.6304931640626	-934.4970703125002	-256.5404663085938	417.996795654297	-1035.709106445313	-326.7631835937501	381.4890136718751	-1073.52734375	-284.7970275878907	374.8352661132813	-1061.478881835938	-283.2193298339844	292.2359313964844	-1028.37353515625	-350.2117919921876	128.0299530029297	-1063.929443359375	-327.6282653808594	124.3992156982422	-981.4605102539065	-415.6657714843751	84.1402053833008	-1025.106079101563	-183.6893005371094	56.31371307373048	-1014.908447265625	-189.8903045654297	53.68074798583986	-1057.351928710938	-241.3122558593751	34.08591842651368	-1105.958374023438	-283.1421203613282	815.7293701171877	-680.8621215820314	-239.8625488281251	765.0347290039064	-681.6850585937501	-209.0427551269532	770.941101074219	-689.3463134765626	-262.0921020507813	682.7156982421876	-694.0184326171876	-291.6166687011719	542.3624877929689	-721.2453002929689	-257.9903564453126	535.4356079101564	-836.1586914062502	-268.4526672363282	328.9308776855469	-741.7354736328126	-359.2575988769532	270.2333068847657	-733.8002929687501	-313.9584045410157	257.6929016113282	-733.8923339843751	-300.4529418945313	209.1424255371094	-767.2669677734376	-373.0281066894532	121.2554321289063	-745.5931396484376	-344.4383239746094	136.1028289794922	-830.5075683593752	-441.5921020507814	97.74293518066409	-795.2641601562502	-216.498031616211	54.10071945190431	-806.2308349609377	-220.3845977783204	56.40114974975587	-760.2860717773439	-275.0956726074219	37.52521896362305	-708.4261474609376	nan	nan	nan	nan	nan	nan	
223	1.11	-304.8107299804688	1787.726806640625	-753.2672729492189	-456.2658081054689	1753.011474609375	-880.2504882812502	-435.0711059570314	1757.459350585938	-740.1790161132814	-482.8489685058595	1574.49755859375	-827.830017089844	-447.268035888672	1267.788818359375	-846.0881958007815	nan	nan	nan	-402.3144836425782	1599.880126953125	-979.161071777344	-217.6292114257813	1579.330932617188	-1063.96484375	-202.8753509521485	1614.125122070313	-1030.607299804688	-150.6826934814453	1595.916381835938	-1054.39697265625	-86.9983367919922	1612.439697265625	-1041.791870117188	-79.16240692138673	1543.023193359375	-1005.072875976563	174.4778137207032	1673.930908203125	-922.6644287109377	181.0876617431641	1680.125366210938	-998.6199951171877	249.3389587402344	1720.58349609375	-909.6131591796877	-387.2426757812501	1596.102905273438	-668.6201171875001	-212.4289550781251	1550.993530273438	-577.4617919921876	-190.927734375	1586.985229492188	-605.7435302734376	-144.3794860839844	1554.247680664063	-584.1171875000001	-84.84952545166017	1574.458618164063	-596.8347167968751	-75.00742340087892	1507.830810546875	-637.8374023437501	194.4579620361329	1647.501953125	-685.8710937500001	197.2551727294922	1635.942260742188	-610.4973144531251	275.4492492675782	1692.76904296875	-678.5768432617189	-251.9315948486329	1105.709594726563	-963.8784179687502	-248.1075134277344	1092.612548828125	-737.4158935546876	-438.6144409179689	1142.089599609375	-845.953552246094	-437.7735595703126	1110.07666015625	-874.7769165039065	-439.572723388672	1108.913940429688	-815.7979736328127	-319.4875488281251	821.5493164062502	-1044.063110351563	-284.5659790039063	744.9737548828126	-1051.001953125	-236.8904418945313	749.5062866210939	-1046.258911132813	-310.0799865722657	690.7671508789064	-1039.734375	-310.6379394531251	568.1209106445314	-1043.87744140625	-272.1724243164063	536.5406494140626	-934.540954589844	-256.5025329589844	418.019500732422	-1035.67822265625	-327.0225219726563	381.0077209472657	-1073.568725585938	-284.7626037597657	374.8579101562501	-1061.49169921875	-283.2225646972657	292.2490844726563	-1028.375366210938	-350.2214355468751	127.9878234863282	-1063.948120117188	-327.6624450683594	124.4131774902344	-981.4751586914065	-415.6947631835939	84.17913818359376	-1025.094848632813	-183.6637420654297	56.33392715454103	-1014.861511230469	-189.9346313476563	53.69206619262697	-1057.335327148438	-241.3595428466797	34.06237792968751	-1105.99560546875	-283.1510009765626	815.710144042969	-680.8181762695314	-239.8662261962891	764.9946899414064	-681.7121582031251	-208.9975128173829	770.8899536132815	-689.2902221679689	-262.0519409179688	682.6977539062501	-693.9916381835939	-291.5973510742188	542.3467407226564	-721.2211914062501	-257.9555358886719	535.4418334960939	-836.1010742187502	-268.3759155273438	328.8984069824219	-741.6953125000001	-359.2756347656251	270.2099304199219	-733.8956909179689	-313.9002380371094	257.6961669921876	-733.8624267578126	-300.4013061523438	209.1598510742188	-767.2646484375001	-373.0347290039063	121.2943496704102	-745.5720214843751	-344.4536437988282	136.1723327636719	-830.5195312500002	-441.5784912109376	97.7354431152344	-795.2828369140627	-216.4526977539063	53.97336578369142	-806.192565917969	-220.3924560546876	56.41697311401369	-760.2681884765626	-275.0849914550782	37.51781845092774	-708.4116210937501	nan	nan	nan	nan	nan	nan	
224	1.115	-304.6051025390626	1787.7802734375	-753.1107177734376	-455.9782714843751	1752.994262695313	-880.0112304687502	-434.7580566406251	1757.48779296875	-740.0463256835939	-482.7111206054689	1574.494384765625	-827.7147216796877	-447.2874755859376	1267.781005859375	-845.9844360351565	nan	nan	nan	-402.1830139160157	1599.904418945313	-978.9944458007815	-217.5521697998047	1579.417358398438	-1063.813842773438	-202.8092193603516	1614.250122070313	-1030.78369140625	-150.6139831542969	1596.08935546875	-1054.319702148438	-86.8422317504883	1612.477294921875	-1041.677612304688	-79.10189819335939	1543.014892578125	-1004.97021484375	174.6143646240235	1673.87060546875	-922.5510253906252	181.1355743408203	1680.12109375	-998.4805297851565	249.4414215087891	1720.566162109375	-909.4741210937502	-387.1075134277345	1596.045776367188	-668.4995117187501	-212.5621795654297	1550.727172851563	-577.6282958984376	-190.8149566650391	1586.9404296875	-605.5930175781251	-144.3526916503907	1554.12158203125	-583.9081420898439	-84.81172943115236	1574.407470703125	-596.5902709960939	-74.8452606201172	1507.894653320313	-637.5963134765626	194.5541076660157	1647.546508789063	-685.5989990234376	197.3267517089844	1635.989135742188	-610.2661743164064	275.5044555664063	1692.869140625	-678.3237304687501	-251.9006805419922	1105.6689453125	-963.7491455078127	-248.1953735351563	1092.551513671875	-737.3092651367189	-438.6693725585939	1142.107421875	-845.9191894531252	-437.8112182617189	1110.092651367188	-874.679138183594	-439.6734619140626	1108.88623046875	-815.747985839844	-319.5071105957032	821.5776977539065	-1043.992309570313	-284.5650634765626	744.9699707031251	-1050.977661132813	-236.8780059814454	749.4569091796876	-1046.155639648438	-310.1155395507813	690.7825927734376	-1039.690551757813	-310.6204223632813	568.1223754882814	-1043.885864257813	-272.0828552246094	536.4996948242189	-934.547058105469	-256.5407104492188	417.9783325195314	-1035.714721679688	-326.8287658691407	381.4473571777344	-1073.497924804688	-284.6789550781251	374.8643188476563	-1061.568115234375	-283.2128295898438	292.1711120605469	-1028.364624023438	-350.2960815429688	127.9878845214844	-1063.978149414063	-327.6667480468751	124.3785781860352	-981.5193481445315	-415.6920471191407	84.1683807373047	-1025.102905273438	-183.6430206298828	56.35509490966798	-1014.889465332031	-189.8468933105469	53.62866210937501	-1057.402465820313	-241.3297424316407	34.05083847045899	-1105.999145507813	-283.0964050292969	815.6728515625002	-680.7155761718751	-240.1189575195313	764.5897827148439	-681.8916625976564	-208.996078491211	770.860778808594	-689.2847900390626	-261.9668273925782	682.6627197265626	-693.9775390625001	-291.5466918945313	542.3367309570314	-721.1772460937501	-257.8183288574219	535.4552612304689	-836.088317871094	-268.2941589355469	328.8981323242188	-741.7020874023439	-359.2533569335938	270.2135009765626	-733.9046020507814	-313.9165344238282	257.6981506347657	-733.8603515625001	-300.4218750000001	209.1481628417969	-767.3011474609376	-373.0188903808594	121.2486648559571	-745.5967407226564	-344.4369201660157	136.1411743164063	-830.5064086914065	-441.577117919922	97.72446441650393	-795.2817993164065	-216.4217071533204	53.94310760498048	-806.2217407226565	-220.3641204833985	56.4108009338379	-760.2633056640626	-275.0727844238282	37.54652786254884	-708.4329223632814	nan	nan	nan	nan	nan	nan	
225	1.12	-304.3902587890626	1787.630737304688	-752.9570922851564	-455.5009155273439	1752.980102539063	-879.956726074219	-434.5183715820314	1757.552490234375	-739.8710937500001	-482.5639648437501	1574.532836914063	-827.5671386718752	-447.1631164550782	1267.831909179688	-845.886901855469	nan	nan	nan	-402.1450500488282	1599.957153320313	-978.8364868164065	-217.3873138427735	1579.38623046875	-1063.681762695313	-202.7280426025391	1614.470703125	-1030.567260742188	-150.4898529052735	1596.137084960938	-1054.199340820313	-86.83092498779298	1612.49951171875	-1041.572021484375	-79.00952148437501	1543.05126953125	-1004.818481445313	174.7171783447266	1673.876098632813	-922.4039306640627	181.3057556152344	1680.1162109375	-998.3342285156252	249.5024871826172	1720.63232421875	-909.3137817382815	-387.034881591797	1596.056640625	-668.3657226562501	-212.4668426513672	1550.726806640625	-577.5187988281251	-190.6825561523438	1586.921264648438	-605.3606567382814	-144.1963653564453	1554.21826171875	-583.7628173828126	-84.64744567871095	1574.380615234375	-596.4495239257814	-74.7493133544922	1507.87744140625	-637.3842163085939	194.6678619384766	1647.569946289063	-685.2534179687501	197.4333190917969	1636.072509765625	-609.9858398437501	275.6069335937501	1692.90283203125	-678.0069580078126	-251.9888458251954	1105.644287109375	-963.6442871093752	-248.3168029785157	1092.529174804688	-737.1643066406251	-438.677459716797	1142.054443359375	-845.8362426757815	-437.8458862304689	1110.082763671875	-874.6106567382815	-439.7953491210939	1108.942016601563	-815.7297973632815	-319.5150146484376	821.5318603515627	-1043.952758789063	-284.6010131835938	744.9865112304689	-1050.929321289063	-236.8882904052735	749.4506225585939	-1046.1533203125	-310.0365600585938	690.7640991210939	-1040.055053710938	-310.6206359863282	568.1370239257814	-1043.86328125	-272.1248168945313	536.4765625000001	-934.522644042969	-256.4756774902344	418.0186462402345	-1035.706176757813	-326.7638244628907	381.4149780273438	-1073.511840820313	-284.7480468750001	374.8124694824219	-1061.541870117188	-283.2612915039063	292.1533508300782	-1028.424926757813	-350.3051452636719	127.9869003295899	-1064.013061523438	-327.6754760742188	124.3167495727539	-981.6106567382815	-415.6770019531251	84.15067291259767	-1025.178955078125	-183.6458740234375	56.28887939453126	-1014.927795410156	-189.8350982666016	53.607234954834	-1057.416381835938	-241.3901519775391	34.0831642150879	-1106.008178710938	-283.0974426269532	815.6329345703127	-680.6260375976564	-240.1086425781251	764.5349731445314	-681.9155273437501	-208.9714660644532	770.8449707031252	-689.1737670898439	-261.9602050781251	682.6179199218751	-693.8826904296876	-291.4789428710938	542.2792968750001	-721.1058959960939	-257.8012695312501	535.4180297851564	-836.0210571289065	-268.2474365234376	328.8612976074219	-741.7082519531251	-359.1557312011719	270.1919250488282	-733.8594360351564	-313.8083801269532	257.7355957031251	-733.7719726562501	-300.3949584960938	209.1511993408204	-767.2916259765626	-373.0297241210938	121.2918548583985	-745.6056518554689	-344.4011230468751	136.1407012939453	-830.5081787109377	-441.5866699218751	97.74781036376956	-795.305603027344	-216.4729003906251	53.94004821777345	-806.2102661132815	-220.3730773925782	56.38011169433595	-760.2519531250001	-275.0658569335938	37.51921844482423	-708.4249267578126	nan	nan	nan	nan	nan	nan	
